<?xml version="1.0" encoding="UTF-8"?>
<svg width="132px" height="43px" viewBox="0 0 132 43" version="1.1" xmlns="http://www.w3.org/2000/svg" xmlns:xlink="http://www.w3.org/1999/xlink">
    <!-- Generator: Sketch 51.3 (57544) - http://www.bohemiancoding.com/sketch -->
    <title>social logo</title>
    <desc>Created with Sketch.</desc>
    <defs></defs>
    <g id="Page-1" stroke="none" stroke-width="1" fill="none" fill-rule="evenodd">
        <g id="social-logo">
            <g id="Group" fill-rule="nonzero">
                <path d="M111.3156,28.4932333 C111.3156,28.4263444 111.3276,28.3642333 111.3516,28.3057056 C111.3768,28.2471778 111.4104,28.1958167 111.4524,28.1528167 C111.4944,28.1098167 111.5448,28.0751778 111.6036,28.0500944 C111.6624,28.0238167 111.7248,28.0106778 111.7908,28.0106778 C111.858,28.0106778 111.9216,28.0238167 111.9804,28.0500944 C112.0392,28.0751778 112.0908,28.1098167 112.134,28.1528167 C112.1772,28.1958167 112.2108,28.2471778 112.236,28.3057056 C112.26,28.3642333 112.272,28.4263444 112.272,28.4932333 C112.272,28.5625111 112.26,28.6246222 112.236,28.6819556 C112.2108,28.7392889 112.1772,28.79065 112.134,28.83365 C112.0908,28.87665 112.0392,28.9112889 111.9804,28.9351778 C111.9216,28.9590667 111.858,28.9710111 111.7908,28.9710111 C111.7248,28.9710111 111.6624,28.9590667 111.6036,28.9351778 C111.5448,28.9112889 111.4944,28.87665 111.4524,28.83365 C111.4104,28.79065 111.3768,28.7392889 111.3516,28.6819556 C111.3276,28.6246222 111.3156,28.5625111 111.3156,28.4932333" id="Shape" fill="#E5007D"></path>
                <path d="M27.38592,17.2848056 C27.54792,17.5272778 27.75552,17.70525 28.00872,17.8211111 C28.26192,17.9357778 28.52232,17.9931111 28.79112,17.9931111 C28.94112,17.9931111 29.09472,17.9704167 29.25072,17.9238333 C29.40672,17.87725 29.54832,17.8067778 29.67672,17.7136111 C29.80392,17.6204444 29.90952,17.5057778 29.98992,17.3684167 C30.07152,17.23225 30.11232,17.0733889 30.11232,16.8930278 C30.11232,16.6386111 30.03072,16.4439167 29.86872,16.3101389 C29.70552,16.1763611 29.50512,16.0640833 29.26392,15.9745 C29.02392,15.8837222 28.76232,15.7977222 28.47792,15.7141111 C28.19352,15.6293056 27.93072,15.51225 27.69072,15.3629444 C27.44952,15.2136389 27.24792,15.0129722 27.08592,14.7621389 C26.92392,14.5101111 26.84232,14.1696944 26.84232,13.7408889 C26.84232,13.5485833 26.88432,13.3431389 26.96832,13.12575 C27.05232,12.9071667 27.18552,12.7076944 27.36672,12.5285278 C27.54792,12.3481667 27.78072,12.1976667 28.06512,12.0758333 C28.34832,11.9551944 28.69152,11.8942778 29.09112,11.8942778 C29.45352,11.8942778 29.79912,11.94325 30.13032,12.0435833 C30.46272,12.1427222 30.75312,12.3445833 31.00272,12.6491667 L30.27192,13.3120833 C30.15912,13.1376944 29.99952,12.99675 29.79312,12.8916389 C29.58792,12.7865278 29.35272,12.7339722 29.09112,12.7339722 C28.84152,12.7339722 28.63272,12.7662222 28.46832,12.8319167 C28.30272,12.8964167 28.16952,12.9812222 28.06992,13.08275 C27.97032,13.1854722 27.89952,13.2965556 27.85872,13.4148056 C27.81792,13.5318611 27.79872,13.64175 27.79872,13.7408889 C27.79872,14.0203889 27.87912,14.2353889 28.04232,14.3835 C28.20432,14.5328056 28.40472,14.6546389 28.64592,14.7478056 C28.88592,14.8409722 29.14872,14.9257778 29.43312,14.9998333 C29.71752,15.0738889 29.97912,15.179 30.22032,15.3127778 C30.46032,15.4453611 30.66192,15.6257222 30.82512,15.8538611 C30.98712,16.0796111 31.06752,16.3925556 31.06752,16.7903056 C31.06752,17.1080278 31.00752,17.3935 30.88512,17.6479167 C30.76272,17.9035278 30.59952,18.1185278 30.39432,18.2917222 C30.18792,18.4661111 29.94312,18.5998889 29.66232,18.6930556 C29.38152,18.7862222 29.08152,18.8328056 28.76352,18.8328056 C28.33872,18.8328056 27.93552,18.75875 27.55512,18.6094444 C27.17352,18.4601389 26.86992,18.2296111 26.64552,17.9190556 L27.38592,17.2848056 Z M33.10116,16.4543083 C33.10116,16.6776694 33.13476,16.8855028 33.20436,17.074225 C33.27276,17.2641417 33.36996,17.4253917 33.49476,17.5603639 C33.61956,17.6929472 33.77196,17.7992528 33.95316,17.8768917 C34.13556,17.9545306 34.33836,17.9939472 34.56276,17.9939472 C34.78836,17.9939472 34.99116,17.9545306 35.17116,17.8768917 C35.35236,17.7992528 35.50596,17.6929472 35.63076,17.5603639 C35.75556,17.4253917 35.85276,17.2641417 35.92116,17.074225 C35.98956,16.8855028 36.02436,16.6776694 36.02436,16.4543083 C36.02436,16.2309472 35.98956,16.0243083 35.92116,15.8343917 C35.85276,15.644475 35.75556,15.483225 35.63076,15.3494472 C35.50596,15.2156694 35.35236,15.1093639 35.17116,15.031725 C34.99116,14.9540861 34.78836,14.9158639 34.56276,14.9158639 C34.33836,14.9158639 34.13556,14.9540861 33.95316,15.031725 C33.77196,15.1093639 33.61956,15.2156694 33.49476,15.3494472 C33.36996,15.483225 33.27276,15.644475 33.20436,15.8343917 C33.13476,16.0243083 33.10116,16.2309472 33.10116,16.4543083 Z M32.20236,16.4543083 C32.20236,16.1318083 32.26236,15.8296139 32.38476,15.5501139 C32.50596,15.2706139 32.67276,15.0245583 32.88516,14.8131417 C33.09756,14.601725 33.34836,14.4356972 33.63516,14.3138639 C33.92196,14.1920306 34.23156,14.1323083 34.56276,14.1323083 C34.89396,14.1323083 35.20356,14.1920306 35.49036,14.3138639 C35.77836,14.4356972 36.02796,14.601725 36.23916,14.8131417 C36.45276,15.0245583 36.61956,15.2706139 36.74076,15.5501139 C36.86316,15.8296139 36.92436,16.1318083 36.92436,16.4543083 C36.92436,16.7780028 36.86316,17.0813917 36.74076,17.364475 C36.61956,17.6475583 36.45276,17.8924194 36.23916,18.1002528 C36.02796,18.3092806 35.77836,18.4741139 35.49036,18.5947528 C35.20356,18.7165861 34.89396,18.7775028 34.56276,18.7775028 C34.23156,18.7775028 33.92196,18.7165861 33.63516,18.5947528 C33.34836,18.4741139 33.09756,18.3092806 32.88516,18.1002528 C32.67276,17.8924194 32.50596,17.6475583 32.38476,17.364475 C32.26236,17.0813917 32.20236,16.7780028 32.20236,16.4543083 Z M41.3934,15.4190833 C41.2374,15.2578333 41.073,15.1348056 40.9014,15.0511944 C40.7298,14.9663889 40.5258,14.9245833 40.2882,14.9245833 C40.0566,14.9245833 39.855,14.9663889 39.6834,15.0511944 C39.5118,15.1348056 39.3678,15.2494722 39.2526,15.3951944 C39.1374,15.5421111 39.0498,15.7105278 38.9898,15.89925 C38.931,16.0891667 38.901,16.28625 38.901,16.4916944 C38.901,16.6971389 38.9358,16.8906389 39.0042,17.0745833 C39.0726,17.2585278 39.1698,17.4173889 39.2946,17.55475 C39.4194,17.6921111 39.5694,17.7984167 39.7446,17.8760556 C39.9186,17.9548889 40.1154,17.9931111 40.335,17.9931111 C40.5714,17.9931111 40.7754,17.9513056 40.9434,17.8676944 C41.1126,17.7840833 41.2686,17.6598611 41.4126,17.4998056 L42.0114,18.0958333 C41.793,18.3383056 41.5386,18.5126944 41.2482,18.6178056 C40.9578,18.7241111 40.6494,18.7766667 40.3254,18.7766667 C39.9822,18.7766667 39.6678,18.7205278 39.3834,18.6094444 C39.099,18.4971667 38.8542,18.3395 38.6478,18.1376389 C38.4414,17.9357778 38.283,17.6933056 38.1702,17.4102222 C38.0586,17.1271389 38.0022,16.8153889 38.0022,16.4737778 C38.0022,16.1309722 38.0586,15.8168333 38.1702,15.5313611 C38.283,15.2446944 38.4402,14.9998333 38.6442,14.7943889 C38.847,14.5889444 39.0906,14.4288889 39.375,14.3142222 C39.6582,14.1983611 39.975,14.1410278 40.3254,14.1410278 C40.6494,14.1410278 40.9614,14.1983611 41.2578,14.3142222 C41.5542,14.4288889 41.8122,14.6044722 42.0306,14.8409722 L41.3934,15.4190833 Z M43.0332,18.6647472 L43.8768,18.6647472 L43.8768,14.2441083 L43.0332,14.2441083 L43.0332,18.6647472 Z M42.8364,12.6590806 C42.8364,12.4918583 42.8964,12.3461361 43.0188,12.2254972 C43.14,12.1048583 43.2864,12.0439417 43.4544,12.0439417 C43.6236,12.0439417 43.7676,12.1048583 43.89,12.2254972 C44.0124,12.3461361 44.0736,12.4918583 44.0736,12.6590806 C44.0736,12.8274972 44.0124,12.972025 43.89,13.0914694 C43.7676,13.2133028 43.6236,13.2742194 43.4544,13.2742194 C43.2864,13.2742194 43.14,13.2133028 43.0188,13.0914694 C42.8964,12.972025 42.8364,12.8274972 42.8364,12.6590806 Z M47.84916,16.5382778 C47.64876,16.5382778 47.44476,16.5490278 47.23596,16.5705278 C47.02596,16.5932222 46.83516,16.6350278 46.66356,16.6971389 C46.49196,16.75925 46.35156,16.8464444 46.24236,16.9575278 C46.13316,17.0698056 46.07796,17.2131389 46.07796,17.3875278 C46.07796,17.6431389 46.16436,17.8246944 46.33596,17.9381667 C46.50756,18.04925 46.74036,18.1053889 47.03436,18.1053889 C47.26476,18.1053889 47.46156,18.0659722 47.62476,17.9883333 C47.78676,17.9106944 47.91756,17.8103611 48.01836,17.6849444 C48.11796,17.5619167 48.18996,17.4233611 48.23316,17.2704722 C48.27636,17.1187778 48.29916,16.9682778 48.29916,16.8177778 L48.29916,16.5382778 L47.84916,16.5382778 Z M45.46836,14.7848333 C45.70596,14.5674444 45.98076,14.4038056 46.29396,14.2951111 C46.60596,14.1876111 46.91796,14.1326667 47.23116,14.1326667 C47.55516,14.1326667 47.83476,14.1732778 48.06876,14.2533056 C48.30396,14.3345278 48.49596,14.4432222 48.64596,14.5805833 C48.79476,14.71675 48.90636,14.8732222 48.97836,15.0511944 C49.04916,15.2279722 49.08636,15.4131111 49.08636,15.6054167 L49.08636,17.8629167 C49.08636,18.0181944 49.08876,18.1615278 49.09476,18.2917222 C49.10196,18.4231111 49.11036,18.5461389 49.12356,18.6655833 L48.37356,18.6655833 C48.35556,18.4410278 48.34596,18.2176667 48.34596,17.9931111 L48.32676,17.9931111 C48.13956,18.2797778 47.91756,18.4816389 47.66196,18.5998889 C47.40516,18.7181389 47.10876,18.7766667 46.77156,18.7766667 C46.56516,18.7766667 46.36836,18.7491944 46.18116,18.6930556 C45.99396,18.6369167 45.82956,18.5533056 45.68916,18.4410278 C45.54876,18.3299444 45.43716,18.1913889 45.35676,18.0265556 C45.27516,17.8617222 45.23436,17.6706111 45.23436,17.4532222 C45.23436,17.1665556 45.29916,16.9276667 45.42636,16.7341667 C45.55476,16.5418611 45.72996,16.3841944 45.95196,16.2635556 C46.17396,16.1417222 46.43196,16.0545278 46.72956,16.0019722 C47.02596,15.9494167 47.34276,15.9231389 47.67996,15.9231389 L48.29916,15.9231389 L48.29916,15.7368056 C48.29916,15.6245278 48.27636,15.51225 48.23316,15.4011667 C48.18996,15.2888889 48.12396,15.1873611 48.03636,15.0977778 C47.94876,15.0081944 47.83956,14.9353333 47.70876,14.8827778 C47.57796,14.8302222 47.42076,14.8039444 47.24076,14.8039444 C47.07756,14.8039444 46.93596,14.8194722 46.81356,14.8505278 C46.69236,14.8815833 46.58076,14.921 46.48116,14.9675833 C46.38156,15.0141667 46.29036,15.0679167 46.20876,15.1300278 C46.12836,15.1921389 46.05036,15.2518611 45.97596,15.3068056 L45.46836,14.7848333 Z" id="Shape" fill="#201751"></path>
                <polygon id="Shape" fill="#201751" points="50.614 18.666 51.457 18.666 51.457 11.615 50.614 11.615"></polygon>
                <path d="M56.28144,17.2848056 C56.44344,17.5272778 56.65104,17.70525 56.90424,17.8211111 C57.15744,17.9357778 57.41784,17.9931111 57.68664,17.9931111 C57.83664,17.9931111 57.99024,17.9704167 58.14624,17.9238333 C58.30224,17.87725 58.44384,17.8067778 58.57224,17.7136111 C58.70064,17.6204444 58.80504,17.5057778 58.88664,17.3684167 C58.96704,17.23225 59.00784,17.0733889 59.00784,16.8930278 C59.00784,16.6386111 58.92624,16.4439167 58.76424,16.3101389 C58.60224,16.1763611 58.40064,16.0640833 58.15944,15.9745 C57.91944,15.8837222 57.65784,15.7977222 57.37344,15.7141111 C57.08904,15.6293056 56.82624,15.51225 56.58624,15.3629444 C56.34624,15.2136389 56.14344,15.0129722 55.98144,14.7621389 C55.81944,14.5101111 55.73784,14.1696944 55.73784,13.7408889 C55.73784,13.5485833 55.77984,13.3431389 55.86504,13.12575 C55.94904,12.9071667 56.08104,12.7076944 56.26224,12.5285278 C56.44344,12.3481667 56.67624,12.1976667 56.96064,12.0758333 C57.24504,11.9551944 57.58704,11.8942778 57.98664,11.8942778 C58.34904,11.8942778 58.69464,11.94325 59.02704,12.0435833 C59.35704,12.1427222 59.64744,12.3445833 59.89824,12.6491667 L59.16744,13.3120833 C59.05464,13.1376944 58.89504,12.99675 58.68984,12.8916389 C58.48344,12.7865278 58.24824,12.7339722 57.98664,12.7339722 C57.73704,12.7339722 57.52824,12.7662222 57.36384,12.8319167 C57.19824,12.8964167 57.06504,12.9812222 56.96544,13.08275 C56.86584,13.1854722 56.79504,13.2965556 56.75424,13.4148056 C56.71344,13.5318611 56.69424,13.64175 56.69424,13.7408889 C56.69424,14.0203889 56.77464,14.2353889 56.93664,14.3835 C57.09984,14.5328056 57.30144,14.6546389 57.54144,14.7478056 C57.78144,14.8409722 58.04424,14.9257778 58.32864,14.9998333 C58.61304,15.0738889 58.87464,15.179 59.11584,15.3127778 C59.35584,15.4453611 59.55744,15.6257222 59.72064,15.8538611 C59.88264,16.0796111 59.96304,16.3925556 59.96304,16.7903056 C59.96304,17.1080278 59.90304,17.3935 59.78064,17.6479167 C59.65944,17.9035278 59.49504,18.1185278 59.28984,18.2917222 C59.08344,18.4661111 58.83864,18.5998889 58.55784,18.6930556 C58.27704,18.7862222 57.97704,18.8328056 57.65904,18.8328056 C57.23424,18.8328056 56.83104,18.75875 56.45064,18.6094444 C56.06904,18.4601389 55.76664,18.2296111 55.54104,17.9190556 L56.28144,17.2848056 Z M64.61112,16.0909583 C64.60512,15.904625 64.57512,15.7338194 64.52232,15.5785417 C64.46952,15.4232639 64.38912,15.2870972 64.28352,15.1724306 C64.17672,15.0577639 64.04472,14.9669861 63.88512,14.9024861 C63.72552,14.8367917 63.53952,14.8045417 63.32712,14.8045417 C63.12192,14.8045417 62.93232,14.8427639 62.76072,14.9204028 C62.58912,14.9980417 62.44392,15.0995694 62.32512,15.2237917 C62.20632,15.3480139 62.11392,15.4865694 62.04792,15.6382639 C61.98312,15.7911528 61.94952,15.9416528 61.94952,16.0909583 L64.61112,16.0909583 Z M61.94952,16.7622361 C61.94952,16.9557361 61.99152,17.130125 62.07672,17.2889861 C62.16072,17.4478472 62.27112,17.5840139 62.40912,17.6950972 C62.54712,17.807375 62.70552,17.8945694 62.88792,17.9554861 C63.06792,18.0187917 63.25632,18.0498472 63.44952,18.0498472 C63.71232,18.0498472 63.94032,17.9889306 64.13352,17.8670972 C64.32672,17.7464583 64.50432,17.5864028 64.66752,17.388125 L65.30472,17.871875 C64.83552,18.4750694 64.18032,18.7772639 63.33672,18.7772639 C62.98752,18.7772639 62.66952,18.7175417 62.38632,18.6004861 C62.10192,18.4810417 61.86192,18.3185972 61.66512,18.1107639 C61.46712,17.9017361 61.31592,17.6556806 61.20912,17.3725972 C61.10352,17.0895139 61.05072,16.7849306 61.05072,16.4540694 C61.05072,16.1244028 61.10832,15.818625 61.22352,15.5355417 C61.33992,15.2524583 61.49832,15.0075972 61.70112,14.7997639 C61.90512,14.5907361 62.14632,14.4282917 62.42832,14.3100417 C62.70912,14.1917917 63.01512,14.1332639 63.34632,14.1332639 C63.73992,14.1332639 64.07232,14.2013472 64.34352,14.3375139 C64.61592,14.474875 64.83912,14.6540417 65.01432,14.8738194 C65.18832,15.0947917 65.31552,15.3432361 65.39352,15.6203472 C65.47152,15.8962639 65.50992,16.1781528 65.50992,16.463625 L65.50992,16.7622361 L61.94952,16.7622361 Z M69.93324,15.4190833 C69.77724,15.2578333 69.61284,15.1348056 69.44124,15.0511944 C69.26964,14.9663889 69.06564,14.9245833 68.82804,14.9245833 C68.59644,14.9245833 68.39484,14.9663889 68.22324,15.0511944 C68.05044,15.1348056 67.90764,15.2494722 67.79244,15.3951944 C67.67604,15.5421111 67.58964,15.7105278 67.53084,15.89925 C67.46964,16.0891667 67.44084,16.28625 67.44084,16.4916944 C67.44084,16.6971389 67.47564,16.8906389 67.54404,17.0745833 C67.61244,17.2585278 67.70964,17.4173889 67.83444,17.55475 C67.95924,17.6921111 68.10924,17.7984167 68.28444,17.8760556 C68.45964,17.9548889 68.65524,17.9931111 68.87364,17.9931111 C69.11124,17.9931111 69.31524,17.9513056 69.48324,17.8676944 C69.65244,17.7840833 69.80844,17.6598611 69.95244,17.4998056 L70.55124,18.0958333 C70.33284,18.3383056 70.07844,18.5126944 69.78804,18.6178056 C69.49764,18.7241111 69.18924,18.7766667 68.86404,18.7766667 C68.52084,18.7766667 68.20764,18.7205278 67.92324,18.6094444 C67.63884,18.4971667 67.39404,18.3395 67.18764,18.1376389 C66.98124,17.9357778 66.82284,17.6933056 66.71004,17.4102222 C66.59724,17.1271389 66.54084,16.8153889 66.54084,16.4737778 C66.54084,16.1309722 66.59724,15.8168333 66.71004,15.5313611 C66.82284,15.2446944 66.98004,14.9998333 67.18284,14.7943889 C67.38564,14.5889444 67.63044,14.4288889 67.91364,14.3142222 C68.19804,14.1983611 68.51484,14.1410278 68.86404,14.1410278 C69.18924,14.1410278 69.50004,14.1983611 69.79764,14.3142222 C70.09404,14.4288889 70.35204,14.6044722 70.57044,14.8409722 L69.93324,15.4190833 Z M75.4428,18.665225 L74.5992,18.665225 L74.5992,17.9843917 L74.5812,17.9843917 C74.4744,18.2208917 74.2908,18.4120028 74.028,18.557725 C73.7664,18.7046417 73.4628,18.7775028 73.1196,18.7775028 C72.9012,18.7775028 72.6948,18.7440583 72.5016,18.6795583 C72.3072,18.6138639 72.1368,18.5123361 71.9904,18.374975 C71.8428,18.2388083 71.7264,18.063225 71.6388,17.848225 C71.5512,17.6344194 71.508,17.3811972 71.508,17.0885583 L71.508,14.2445861 L72.3504,14.2445861 L72.3504,16.8556417 C72.3504,17.0610861 72.3792,17.2366694 72.4344,17.3823917 C72.4908,17.5293083 72.5664,17.6475583 72.66,17.7371417 C72.7536,17.826725 72.8616,17.8924194 72.984,17.9330306 C73.1052,17.9736417 73.2324,17.9939472 73.3632,17.9939472 C73.5372,17.9939472 73.7004,17.9652806 73.8504,17.9103361 C74.0004,17.8541972 74.1312,17.7646139 74.244,17.643975 C74.3556,17.5221417 74.4432,17.3692528 74.5056,17.181725 C74.568,16.9965861 74.5992,16.7744194 74.5992,16.5200028 L74.5992,14.2445861 L75.4428,14.2445861 L75.4428,18.665225 Z M76.95156,14.2438694 L77.79516,14.2438694 L77.79516,14.9247028 L77.81316,14.9247028 C77.86956,14.8064528 77.94516,14.6989528 78.03876,14.6033972 C78.13236,14.5066472 78.23676,14.4242306 78.35196,14.3561472 C78.46836,14.2868694 78.59436,14.2331194 78.73116,14.1925083 C78.86916,14.1518972 79.00716,14.1315917 79.14396,14.1315917 C79.28076,14.1315917 79.40556,14.1507028 79.51836,14.1877306 L79.48116,15.091925 C79.41276,15.0740083 79.34436,15.0584806 79.27476,15.0453417 C79.20636,15.0333972 79.13796,15.027425 79.06836,15.027425 C78.65676,15.027425 78.34116,15.1420917 78.12276,15.3726194 C77.90436,15.6031472 77.79516,15.9590917 77.79516,16.4452306 L77.79516,18.6645083 L76.95156,18.6645083 L76.95156,14.2438694 Z M80.718,18.6647472 L81.5616,18.6647472 L81.5616,14.2441083 L80.718,14.2441083 L80.718,18.6647472 Z M80.5212,12.6590806 C80.5212,12.4918583 80.5824,12.3461361 80.7036,12.2254972 C80.826,12.1048583 80.9712,12.0439417 81.1404,12.0439417 C81.3084,12.0439417 81.4536,12.1048583 81.5748,12.2254972 C81.6972,12.3461361 81.7572,12.4918583 81.7572,12.6590806 C81.7572,12.8274972 81.6972,12.972025 81.5748,13.0914694 C81.4536,13.2133028 81.3084,13.2742194 81.1404,13.2742194 C80.9712,13.2742194 80.826,13.2133028 80.7036,13.0914694 C80.5824,12.972025 80.5212,12.8274972 80.5212,12.6590806 Z M85.5156,14.9717639 L84.306,14.9717639 L84.306,16.9760417 C84.306,17.1014583 84.3096,17.2244861 84.3168,17.345125 C84.3228,17.4657639 84.3456,17.5756528 84.3864,17.6724028 C84.4272,17.7679583 84.4896,17.8455972 84.5736,17.904125 C84.6576,17.9638472 84.7812,17.9937083 84.9444,17.9937083 C85.0428,17.9937083 85.1472,17.9841528 85.2528,17.9662361 C85.3596,17.947125 85.4556,17.9124861 85.5432,17.8635139 L85.5432,18.6279583 C85.4436,18.6840972 85.314,18.7223194 85.1544,18.7438194 C84.996,18.7653194 84.8724,18.7772639 84.7848,18.7772639 C84.4596,18.7772639 84.2076,18.731875 84.03,18.6422917 C83.8524,18.5515139 83.7204,18.4344583 83.6364,18.291125 C83.5524,18.1501806 83.5032,17.9889306 83.4864,17.8121528 C83.4708,17.6341806 83.4636,17.4550139 83.4636,17.2758472 L83.4636,14.9717639 L82.4892,14.9717639 L82.4892,14.2443472 L83.4636,14.2443472 L83.4636,13.0033194 L84.306,13.0033194 L84.306,14.2443472 L85.5156,14.2443472 L85.5156,14.9717639 Z M86.31192,14.2438694 L87.28632,14.2438694 L88.60152,17.6946194 L88.62072,17.6946194 L89.88072,14.2438694 L90.78072,14.2438694 L88.67232,19.6152861 C88.59792,19.8087861 88.51992,19.9843694 88.43952,20.1432306 C88.35912,20.3008972 88.26312,20.4358694 88.15032,20.5481472 C88.03872,20.660425 87.90312,20.7476194 87.74472,20.8097306 C87.58632,20.8718417 87.39072,20.9028972 87.16152,20.9028972 C87.03672,20.9028972 86.91072,20.8957306 86.78352,20.8790083 C86.65632,20.8634806 86.53272,20.8312306 86.41512,20.7822583 L86.51712,20.0166194 C86.68512,20.0858972 86.85312,20.1205361 87.01992,20.1205361 C87.15072,20.1205361 87.25992,20.101425 87.34992,20.069175 C87.44112,20.0345361 87.51792,19.9843694 87.58392,19.918675 C87.64872,19.8529806 87.70272,19.7777306 87.74712,19.6905361 C87.78912,19.6033417 87.83352,19.5042028 87.87672,19.391925 L88.14912,18.693175 L86.31192,14.2438694 Z M95.00664,17.2848056 C95.16864,17.5272778 95.37624,17.70525 95.62944,17.8211111 C95.88264,17.9357778 96.14304,17.9931111 96.41184,17.9931111 C96.56184,17.9931111 96.71544,17.9704167 96.87144,17.9238333 C97.02744,17.87725 97.16904,17.8067778 97.29744,17.7136111 C97.42584,17.6204444 97.53024,17.5057778 97.61184,17.3684167 C97.69224,17.23225 97.73304,17.0733889 97.73304,16.8930278 C97.73304,16.6386111 97.65144,16.4439167 97.48944,16.3101389 C97.32744,16.1763611 97.12584,16.0640833 96.88464,15.9745 C96.64464,15.8837222 96.38304,15.7977222 96.09864,15.7141111 C95.81424,15.6293056 95.55144,15.51225 95.31144,15.3629444 C95.07144,15.2136389 94.86864,15.0129722 94.70664,14.7621389 C94.54464,14.5101111 94.46304,14.1696944 94.46304,13.7408889 C94.46304,13.5485833 94.50504,13.3431389 94.59024,13.12575 C94.67424,12.9071667 94.80624,12.7076944 94.98744,12.5285278 C95.16864,12.3481667 95.40144,12.1976667 95.68584,12.0758333 C95.96904,11.9551944 96.31224,11.8942778 96.71184,11.8942778 C97.07424,11.8942778 97.41984,11.94325 97.75224,12.0435833 C98.08344,12.1427222 98.37384,12.3445833 98.62344,12.6491667 L97.89264,13.3120833 C97.77984,13.1376944 97.62024,12.99675 97.41504,12.8916389 C97.20864,12.7865278 96.97344,12.7339722 96.71184,12.7339722 C96.46224,12.7339722 96.25344,12.7662222 96.08904,12.8319167 C95.92344,12.8964167 95.79024,12.9812222 95.69064,13.08275 C95.59104,13.1854722 95.52024,13.2965556 95.47944,13.4148056 C95.43864,13.5318611 95.41944,13.64175 95.41944,13.7408889 C95.41944,14.0203889 95.49984,14.2353889 95.66184,14.3835 C95.82504,14.5328056 96.02544,14.6546389 96.26664,14.7478056 C96.50784,14.8409722 96.76944,14.9257778 97.05384,14.9998333 C97.33824,15.0738889 97.59984,15.179 97.84104,15.3127778 C98.08104,15.4453611 98.28264,15.6257222 98.44584,15.8538611 C98.60784,16.0796111 98.68824,16.3925556 98.68824,16.7903056 C98.68824,17.1080278 98.62824,17.3935 98.50584,17.6479167 C98.38344,17.9035278 98.22024,18.1185278 98.01504,18.2917222 C97.80864,18.4661111 97.56384,18.5998889 97.28304,18.6930556 C97.00224,18.7862222 96.70224,18.8328056 96.38424,18.8328056 C95.95944,18.8328056 95.55624,18.75875 95.17584,18.6094444 C94.79424,18.4601389 94.49064,18.2296111 94.26624,17.9190556 L95.00664,17.2848056 Z M103.2144,15.4190833 C103.0584,15.2578333 102.894,15.1348056 102.7224,15.0511944 C102.5508,14.9663889 102.3468,14.9245833 102.1092,14.9245833 C101.8776,14.9245833 101.6772,14.9663889 101.5044,15.0511944 C101.3328,15.1348056 101.1888,15.2494722 101.0736,15.3951944 C100.9584,15.5421111 100.8708,15.7105278 100.8108,15.89925 C100.752,16.0891667 100.722,16.28625 100.722,16.4916944 C100.722,16.6971389 100.7568,16.8906389 100.8252,17.0745833 C100.8936,17.2585278 100.9908,17.4173889 101.1156,17.55475 C101.2404,17.6921111 101.3904,17.7984167 101.5656,17.8760556 C101.7408,17.9548889 101.9364,17.9931111 102.156,17.9931111 C102.3924,17.9931111 102.5964,17.9513056 102.7644,17.8676944 C102.9336,17.7840833 103.0896,17.6598611 103.2336,17.4998056 L103.8324,18.0958333 C103.614,18.3383056 103.3596,18.5126944 103.0692,18.6178056 C102.7788,18.7241111 102.4704,18.7766667 102.1464,18.7766667 C101.8032,18.7766667 101.4888,18.7205278 101.2044,18.6094444 C100.92,18.4971667 100.6752,18.3395 100.4688,18.1376389 C100.2636,17.9357778 100.104,17.6933056 99.9912,17.4102222 C99.8784,17.1271389 99.822,16.8153889 99.822,16.4737778 C99.822,16.1309722 99.8784,15.8168333 99.9912,15.5313611 C100.104,15.2446944 100.2612,14.9998333 100.4652,14.7943889 C100.668,14.5889444 100.9116,14.4288889 101.196,14.3142222 C101.4792,14.1983611 101.796,14.1410278 102.1464,14.1410278 C102.4704,14.1410278 102.7824,14.1983611 103.0788,14.3142222 C103.3752,14.4288889 103.6332,14.6044722 103.8516,14.8409722 L103.2144,15.4190833 Z M105.6426,16.4543083 C105.6426,16.6776694 105.6762,16.8855028 105.7458,17.074225 C105.8142,17.2641417 105.9114,17.4253917 106.0362,17.5603639 C106.161,17.6929472 106.3134,17.7992528 106.4946,17.8768917 C106.677,17.9545306 106.8798,17.9939472 107.1042,17.9939472 C107.3298,17.9939472 107.5326,17.9545306 107.7138,17.8768917 C107.8938,17.7992528 108.0474,17.6929472 108.1722,17.5603639 C108.297,17.4253917 108.3942,17.2641417 108.4626,17.074225 C108.531,16.8855028 108.5658,16.6776694 108.5658,16.4543083 C108.5658,16.2309472 108.531,16.0243083 108.4626,15.8343917 C108.3942,15.644475 108.297,15.483225 108.1722,15.3494472 C108.0474,15.2156694 107.8938,15.1093639 107.7138,15.031725 C107.5326,14.9540861 107.3298,14.9158639 107.1042,14.9158639 C106.8798,14.9158639 106.677,14.9540861 106.4946,15.031725 C106.3134,15.1093639 106.161,15.2156694 106.0362,15.3494472 C105.9114,15.483225 105.8142,15.644475 105.7458,15.8343917 C105.6762,16.0243083 105.6426,16.2309472 105.6426,16.4543083 Z M104.7438,16.4543083 C104.7438,16.1318083 104.8038,15.8296139 104.9262,15.5501139 C105.0474,15.2706139 105.2142,15.0245583 105.4266,14.8131417 C105.639,14.601725 105.8898,14.4356972 106.1766,14.3138639 C106.4646,14.1920306 106.773,14.1323083 107.1042,14.1323083 C107.4354,14.1323083 107.745,14.1920306 108.0318,14.3138639 C108.3198,14.4356972 108.5694,14.601725 108.7818,14.8131417 C108.9942,15.0245583 109.161,15.2706139 109.2834,15.5501139 C109.4046,15.8296139 109.4658,16.1318083 109.4658,16.4543083 C109.4658,16.7780028 109.4046,17.0813917 109.2834,17.364475 C109.161,17.6475583 108.9942,17.8924194 108.7818,18.1002528 C108.5694,18.3092806 108.3198,18.4741139 108.0318,18.5947528 C107.745,18.7165861 107.4354,18.7775028 107.1042,18.7775028 C106.773,18.7775028 106.4646,18.7165861 106.1766,18.5947528 C105.8898,18.4741139 105.639,18.3092806 105.4266,18.1002528 C105.2142,17.8924194 105.0474,17.6475583 104.9262,17.364475 C104.8038,17.0813917 104.7438,16.7780028 104.7438,16.4543083 Z M113.13792,14.9717639 L111.92832,14.9717639 L111.92832,16.9760417 C111.92832,17.1014583 111.93192,17.2244861 111.93912,17.345125 C111.94512,17.4657639 111.96792,17.5756528 112.00872,17.6724028 C112.04952,17.7679583 112.11192,17.8455972 112.19592,17.904125 C112.27992,17.9638472 112.40352,17.9937083 112.56672,17.9937083 C112.66512,17.9937083 112.76952,17.9841528 112.87512,17.9662361 C112.98192,17.947125 113.07792,17.9124861 113.16552,17.8635139 L113.16552,18.6279583 C113.06592,18.6840972 112.93632,18.7223194 112.77672,18.7438194 C112.61832,18.7653194 112.49472,18.7772639 112.40712,18.7772639 C112.08192,18.7772639 111.82992,18.731875 111.65232,18.6422917 C111.47472,18.5515139 111.34272,18.4344583 111.25872,18.291125 C111.17472,18.1501806 111.12552,17.9889306 111.10872,17.8121528 C111.09312,17.6341806 111.08592,17.4550139 111.08592,17.2758472 L111.08592,14.9717639 L110.11152,14.9717639 L110.11152,14.2443472 L111.08592,14.2443472 L111.08592,13.0033194 L111.92832,13.0033194 L111.92832,14.2443472 L113.13792,14.2443472 L113.13792,14.9717639 Z" id="Shape" fill="#201751"></path>
                <polygon id="Shape" fill="#201751" points="114.581 18.666 115.424 18.666 115.424 11.615 114.581 11.615"></polygon>
                <path d="M119.39688,16.5382778 C119.19648,16.5382778 118.99248,16.5490278 118.78368,16.5705278 C118.57368,16.5932222 118.38288,16.6350278 118.21128,16.6971389 C118.03968,16.75925 117.89928,16.8464444 117.79008,16.9575278 C117.68088,17.0698056 117.62568,17.2131389 117.62568,17.3875278 C117.62568,17.6431389 117.71208,17.8246944 117.88368,17.9381667 C118.05528,18.04925 118.28808,18.1053889 118.58208,18.1053889 C118.81248,18.1053889 119.00928,18.0659722 119.17248,17.9883333 C119.33448,17.9106944 119.46528,17.8103611 119.56608,17.6849444 C119.66568,17.5619167 119.73648,17.4233611 119.78088,17.2704722 C119.82408,17.1187778 119.84688,16.9682778 119.84688,16.8177778 L119.84688,16.5382778 L119.39688,16.5382778 Z M117.01608,14.7848333 C117.25368,14.5674444 117.52848,14.4038056 117.84048,14.2951111 C118.15368,14.1876111 118.46568,14.1326667 118.77888,14.1326667 C119.10288,14.1326667 119.38248,14.1732778 119.61648,14.2533056 C119.85168,14.3345278 120.04368,14.4432222 120.19368,14.5805833 C120.34368,14.71675 120.45408,14.8732222 120.52608,15.0511944 C120.59688,15.2279722 120.63408,15.4131111 120.63408,15.6054167 L120.63408,17.8629167 C120.63408,18.0181944 120.63648,18.1615278 120.64248,18.2917222 C120.64968,18.4231111 120.65808,18.5461389 120.67128,18.6655833 L119.92128,18.6655833 C119.90328,18.4410278 119.89368,18.2176667 119.89368,17.9931111 L119.87448,17.9931111 C119.68728,18.2797778 119.46528,18.4816389 119.20968,18.5998889 C118.95288,18.7181389 118.65648,18.7766667 118.31928,18.7766667 C118.11288,18.7766667 117.91728,18.7491944 117.72888,18.6930556 C117.54168,18.6369167 117.37728,18.5533056 117.23688,18.4410278 C117.09648,18.3299444 116.98488,18.1913889 116.90448,18.0265556 C116.82288,17.8617222 116.78208,17.6706111 116.78208,17.4532222 C116.78208,17.1665556 116.84688,16.9276667 116.97408,16.7341667 C117.10248,16.5418611 117.27768,16.3841944 117.49968,16.2635556 C117.72168,16.1417222 117.97968,16.0545278 118.27728,16.0019722 C118.57368,15.9494167 118.89048,15.9231389 119.22768,15.9231389 L119.84688,15.9231389 L119.84688,15.7368056 C119.84688,15.6245278 119.82408,15.51225 119.78088,15.4011667 C119.73648,15.2888889 119.67168,15.1873611 119.58408,15.0977778 C119.49648,15.0081944 119.38728,14.9353333 119.25648,14.8827778 C119.12568,14.8302222 118.96848,14.8039444 118.78848,14.8039444 C118.62528,14.8039444 118.48368,14.8194722 118.36128,14.8505278 C118.24008,14.8815833 118.12848,14.921 118.02888,14.9675833 C117.92928,15.0141667 117.83808,15.0679167 117.75648,15.1300278 C117.67608,15.1921389 117.59808,15.2518611 117.52248,15.3068056 L117.01608,14.7848333 Z M122.09568,14.2438694 L122.93928,14.2438694 L122.93928,14.9247028 L122.95728,14.9247028 C123.06288,14.6882028 123.24768,14.4970917 123.51048,14.3513694 C123.77208,14.2056472 124.07448,14.1315917 124.41888,14.1315917 C124.63128,14.1315917 124.83648,14.1650361 125.03328,14.2295361 C125.23008,14.2952306 125.40168,14.3967583 125.54808,14.532925 C125.69448,14.6702861 125.81208,14.8458694 125.89968,15.059675 C125.98728,15.274675 126.03048,15.5278972 126.03048,15.8193417 L126.03048,18.6645083 L125.18688,18.6645083 L125.18688,16.0534528 C125.18688,15.8480083 125.15928,15.672425 125.10288,15.5255083 C125.04648,15.3797861 124.97208,15.2627306 124.87848,15.1719528 C124.78488,15.0823694 124.67688,15.016675 124.55448,14.9760639 C124.43328,14.9354528 124.30608,14.9151472 124.17528,14.9151472 C124.00128,14.9151472 123.83808,14.9438139 123.68808,14.9987583 C123.53808,15.0548972 123.40728,15.1432861 123.29448,15.2651194 C123.18288,15.3857583 123.09528,15.5398417 123.03288,15.7273694 C122.96928,15.9125083 122.93928,16.134675 122.93928,16.3890917 L122.93928,18.6645083 L122.09568,18.6645083 L122.09568,14.2438694 Z M129.45912,17.99335 C129.68352,17.99335 129.88752,17.9539333 130.06872,17.8762944 C130.24992,17.7986556 130.40232,17.69235 130.52712,17.5597667 C130.65192,17.4247944 130.74912,17.2635444 130.81872,17.0736278 C130.88592,16.8849056 130.92072,16.6782667 130.92072,16.4537111 C130.92072,16.23035 130.88592,16.0237111 130.81872,15.8337944 C130.74912,15.6450722 130.65192,15.4826278 130.52712,15.34885 C130.40232,15.2150722 130.24992,15.1087667 130.06872,15.0323222 C129.88752,14.9534889 129.68352,14.9152667 129.45912,14.9152667 C129.23472,14.9152667 129.03192,14.9534889 128.85072,15.0323222 C128.66832,15.1087667 128.51592,15.2150722 128.39112,15.34885 C128.26632,15.4826278 128.16912,15.6450722 128.10072,15.8337944 C128.03232,16.0237111 127.99752,16.23035 127.99752,16.4537111 C127.99752,16.6782667 128.03232,16.8849056 128.10072,17.0736278 C128.16912,17.2635444 128.26632,17.4247944 128.39112,17.5597667 C128.51592,17.69235 128.66832,17.7986556 128.85072,17.8762944 C129.03192,17.9539333 129.23472,17.99335 129.45912,17.99335 Z M131.76432,18.6646278 L130.92072,18.6646278 L130.92072,18.0303778 L130.90272,18.0303778 C130.73952,18.2668778 130.51632,18.4508222 130.23312,18.5810167 C129.94872,18.7112111 129.65592,18.7769056 129.35592,18.7769056 C129.01272,18.7769056 128.70192,18.7171833 128.42352,18.5989333 C128.14632,18.4806833 127.90872,18.3170444 127.71192,18.1056278 C127.51512,17.8942111 127.36392,17.6481556 127.25712,17.3686556 C127.15152,17.0879611 127.09872,16.7833778 127.09872,16.4537111 C127.09872,16.1240444 127.15152,15.8182667 127.25712,15.5351833 C127.36392,15.2521 127.51512,15.0072389 127.71192,14.7994056 C127.90872,14.5903778 128.14632,14.4267389 128.42352,14.3096833 C128.70192,14.1914333 129.01272,14.1317111 129.35592,14.1317111 C129.67512,14.1317111 129.97512,14.1986 130.25592,14.3323778 C130.53672,14.4661556 130.75272,14.6489056 130.90272,14.8782389 L130.92072,14.8782389 L130.92072,11.6138222 L131.76432,11.6138222 L131.76432,18.6646278 Z M-0.00024,18.2179056 L0.13056,4.76129444 C0.13176,4.34323889 0.47856,3.86785 0.89976,3.7066 L10.49496,0.0539888889 C10.91616,-0.107261111 11.25936,0.102961111 11.25696,0.521016667 L8.46336,13.8080167 C8.46216,14.2272667 7.92456,15.3906556 7.50336,15.5519056 L0.76296,18.6849333 C0.34056,18.8461833 -0.00264,18.6359611 -0.00024,18.2179056 Z" id="Shape" fill="#201751"></path>
                <path d="M1.87068,34.6194194 L2.07708,13.3356139 C2.08068,12.6738917 2.62788,11.9225861 3.29508,11.666975 L18.47028,5.88944722 C19.13748,5.63383611 19.67988,5.96589167 19.67628,6.62880833 L15.25788,27.6438639 C15.25548,28.3067806 14.70708,29.0580861 14.04108,29.3136972 L3.07668,35.3575861 C2.41068,35.6143917 1.86828,35.2811417 1.87068,34.6194194" id="Shape" fill="#E5007D"></path>
                <path d="M18.23304,41.6460972 L18.28704,26.321375 C18.28944,25.6584583 17.97504,24.9035694 17.58864,24.6431806 L7.67424,17.947125 C7.28784,17.6855417 6.96864,18.0140139 6.96504,18.6769306 L6.91224,34.0016528 C6.91224,34.9082361 6.91224,35.1925139 7.60944,35.6798472 L17.35584,42.2624306 C17.91984,42.6195694 18.23304,42.4941528 18.23304,41.6460972" id="Shape" fill="#201751"></path>
                <path d="M5.99508,33.7498639 L8.53188,32.2651694 C8.72028,32.2651694 8.87508,32.1110861 8.87508,31.9235583 L8.87508,13.2316972 C8.87508,13.0441694 8.72028,12.8912806 8.53188,12.8912806 L5.01828,12.8912806 C4.82988,12.8912806 4.67508,13.0441694 4.67508,13.2316972 L4.67508,31.9235583 C4.67508,32.1110861 5.80668,33.7498639 5.99508,33.7498639" id="Shape" fill="#E5007D"></path>
                <path d="M8.63472,32.2473722 L7.08552,33.1491778 C7.08552,33.1491778 6.87072,32.5579278 6.89592,32.5412056 C6.91992,32.5256778 7.91832,31.6214833 8.00952,31.6131222 C8.10072,31.6047611 8.63472,32.2473722 8.63472,32.2473722 Z M27.27348,28.3129917 L28.46988,28.3129917 C28.77348,28.3129917 29.05428,28.273575 29.31348,28.1935472 C29.57388,28.1147139 29.79708,27.9916861 29.98668,27.8256583 C30.17628,27.6596306 30.32628,27.4470194 30.43548,27.1890194 C30.54468,26.9310194 30.59988,26.6216583 30.59988,26.2585472 C30.59988,25.8966306 30.54468,25.5872694 30.43548,25.3292694 C30.32628,25.0712694 30.17628,24.8586583 29.98668,24.6926306 C29.79708,24.5266028 29.57388,24.403575 29.31348,24.3247417 C29.05428,24.2447139 28.77348,24.2052972 28.46988,24.2052972 L27.27348,24.2052972 L27.27348,28.3129917 Z M26.64588,23.6247972 L28.67868,23.6247972 C28.85388,23.6247972 29.03748,23.6439083 29.23188,23.6857139 C29.42628,23.7239361 29.61948,23.7872417 29.81148,23.8744361 C30.00348,23.9616306 30.18828,24.0739083 30.36468,24.2136583 C30.54108,24.3522139 30.69708,24.5194361 30.83148,24.715325 C30.96708,24.9112139 31.07268,25.1369639 31.15308,25.392575 C31.23348,25.6481861 31.27308,25.9372417 31.27308,26.2585472 C31.27308,26.5810472 31.23348,26.8701028 31.15308,27.1257139 C31.07268,27.381325 30.96708,27.607075 30.83148,27.8029639 C30.69708,27.9988528 30.54108,28.166075 30.36468,28.3046306 C30.18828,28.4443806 30.00348,28.5566583 29.81148,28.6438528 C29.61948,28.7310472 29.42628,28.7943528 29.23188,28.8337694 C29.03748,28.8731861 28.85388,28.8934917 28.67868,28.8934917 L26.64588,28.8934917 L26.64588,23.6247972 Z M32.304,28.892775 L32.8872,28.892775 L32.8872,25.409775 L32.304,25.409775 L32.304,28.892775 Z M32.1696,24.0493028 C32.1696,23.937025 32.2104,23.8366917 32.2932,23.7530806 C32.376,23.6670806 32.4756,23.6264694 32.5956,23.6264694 C32.7156,23.6264694 32.8164,23.6670806 32.898,23.7530806 C32.9808,23.8366917 33.0216,23.937025 33.0216,24.0493028 C33.0216,24.1747194 32.982,24.2750528 32.9016,24.3550806 C32.8224,24.4351083 32.7204,24.474525 32.5956,24.474525 C32.4708,24.474525 32.3688,24.4351083 32.2896,24.3550806 C32.2092,24.2750528 32.1696,24.1747194 32.1696,24.0493028 Z M34.54668,27.15235 C34.54668,27.3315167 34.57908,27.49635 34.64388,27.64685 C34.70868,27.7985444 34.79748,27.9299333 34.90908,28.0410167 C35.02068,28.1532944 35.15268,28.2416833 35.30148,28.3049889 C35.45148,28.3694889 35.61108,28.4029333 35.78028,28.4029333 C35.97948,28.4029333 36.15588,28.3682944 36.31068,28.2990167 C36.46548,28.2285444 36.59628,28.1365722 36.70308,28.0195167 C36.81108,27.9024611 36.89028,27.7686833 36.94668,27.6169889 C37.00068,27.4664889 37.02828,27.3052389 37.02828,27.1380167 C37.02828,26.9481 36.99828,26.7772944 36.93948,26.6196278 C36.87828,26.46435 36.79428,26.3293778 36.68508,26.2147111 C36.57468,26.1000444 36.44268,26.01285 36.28908,25.9507389 C36.13428,25.8898222 35.96508,25.8587667 35.78028,25.8587667 C35.59548,25.8587667 35.42748,25.8910167 35.27508,25.9579056 C35.12388,26.0247944 34.99308,26.1167667 34.88628,26.2326278 C34.77948,26.3508778 34.69668,26.48585 34.63668,26.6423222 C34.57668,26.7987944 34.54668,26.9696 34.54668,27.15235 Z M37.61148,28.7373778 C37.61148,29.3728222 37.44828,29.8541833 37.12188,30.18385 C36.79548,30.5135167 36.32388,30.6795444 35.70468,30.6795444 C35.36148,30.6795444 35.05068,30.6293778 34.77468,30.5302389 C34.49748,30.4311 34.23588,30.2602944 33.98628,30.0166278 L34.40508,29.5412389 C34.58868,29.7395167 34.78428,29.8888222 34.99188,29.9915444 C35.19828,30.0918778 35.43588,30.1432389 35.70468,30.1432389 C35.96508,30.1432389 36.17988,30.1050167 36.35268,30.0273778 C36.52428,29.9509333 36.65868,29.8470167 36.75948,29.7156278 C36.85908,29.5842389 36.92868,29.4337389 36.96948,29.2653222 C37.00908,29.0969056 37.02828,28.9213222 37.02828,28.7373778 L37.02828,28.2906556 L37.01388,28.2906556 C36.87348,28.5140167 36.69228,28.6776556 36.46788,28.7815722 C36.24348,28.8866833 36.01428,28.9380444 35.78028,28.9380444 C35.50668,28.9380444 35.25348,28.89385 35.02548,28.8042667 C34.79508,28.7146833 34.59828,28.5904611 34.43508,28.4327944 C34.26948,28.2739333 34.14228,28.0852111 34.05348,27.8666278 C33.96348,27.6480444 33.91908,27.41035 33.91908,27.15235 C33.91908,26.8692667 33.96348,26.6136556 34.05348,26.3867111 C34.14228,26.1573778 34.26828,25.9662667 34.43148,25.8086 C34.59228,25.6533222 34.78788,25.5326833 35.01828,25.4490722 C35.24628,25.3642667 35.50068,25.3224611 35.78028,25.3224611 C35.90028,25.3224611 36.01908,25.3356 36.13908,25.3630722 C36.25788,25.38935 36.37428,25.43235 36.48708,25.4896833 C36.59868,25.5470167 36.69948,25.6186833 36.78948,25.7046833 C36.87828,25.7918778 36.95388,25.8922111 37.01388,26.0068778 L37.02828,26.0068778 L37.02828,25.41085 L37.61148,25.41085 L37.61148,28.7373778 Z M38.76252,26.2372861 C38.76252,26.078425 38.75772,25.9291194 38.74812,25.7905639 C38.73732,25.6520083 38.73252,25.5253972 38.73252,25.411925 L39.28572,25.411925 C39.28572,25.5050917 39.28812,25.5994528 39.29292,25.6950083 C39.29892,25.788175 39.30132,25.8861194 39.30132,25.9840639 L39.31572,25.9840639 C39.35532,25.9004528 39.41172,25.8180361 39.48372,25.7392028 C39.55572,25.6603694 39.64212,25.5887028 39.74172,25.5277861 C39.84132,25.4644806 39.95412,25.4155083 40.07772,25.3784806 C40.20252,25.3402583 40.33812,25.3223417 40.48212,25.3223417 C40.71132,25.3223417 40.90932,25.3569806 41.07612,25.4262583 C41.24292,25.4955361 41.38212,25.5922861 41.49132,25.7165083 C41.60052,25.8407306 41.68092,25.9912306 41.73372,26.1668139 C41.78652,26.3423972 41.81292,26.5347028 41.81292,26.7437306 L41.81292,28.8937306 L41.22972,28.8937306 L41.22972,26.8022583 C41.22972,26.5108139 41.16492,26.2790917 41.03532,26.1118694 C40.90572,25.9434528 40.70412,25.8586472 40.43052,25.8586472 C40.23972,25.8586472 40.07652,25.8897028 39.93972,25.9542028 C39.80292,26.0187028 39.69012,26.1118694 39.60372,26.2301194 C39.51612,26.3495639 39.45132,26.4905083 39.40932,26.6541472 C39.36732,26.8177861 39.34572,26.9993417 39.34572,27.1976194 L39.34572,28.8937306 L38.76252,28.8937306 L38.76252,26.2372861 Z M43.0464,28.892775 L43.6296,28.892775 L43.6296,25.409775 L43.0464,25.409775 L43.0464,28.892775 Z M42.912,24.0493028 C42.912,23.937025 42.9528,23.8366917 43.0344,23.7530806 C43.116,23.6670806 43.218,23.6264694 43.3368,23.6264694 C43.4568,23.6264694 43.5576,23.6670806 43.6404,23.7530806 C43.722,23.8366917 43.7628,23.937025 43.7628,24.0493028 C43.7628,24.1747194 43.7232,24.2750528 43.644,24.3550806 C43.5636,24.4351083 43.4616,24.474525 43.3368,24.474525 C43.2132,24.474525 43.1112,24.4351083 43.0308,24.3550806 C42.9516,24.2750528 42.912,24.1747194 42.912,24.0493028 Z M46.77576,25.9018861 L45.74376,25.9018861 L45.74376,27.6433861 C45.74376,27.7568583 45.74616,27.8631639 45.75096,27.9599139 C45.75696,28.0554694 45.77616,28.140275 45.81096,28.2119417 C45.84576,28.2848028 45.89856,28.3409417 45.96816,28.3839417 C46.03776,28.4257472 46.13736,28.4472472 46.26696,28.4472472 C46.35216,28.4472472 46.43976,28.4364972 46.52856,28.4173861 C46.61856,28.3970806 46.70376,28.3672194 46.78296,28.3278028 L46.80576,28.8569417 C46.70616,28.9011361 46.59456,28.9333861 46.47216,28.9524972 C46.35096,28.9728028 46.23456,28.9823583 46.12536,28.9823583 C45.91536,28.9823583 45.74976,28.9548861 45.62376,28.9011361 C45.50016,28.8461917 45.40296,28.7697472 45.33336,28.6706083 C45.26256,28.570275 45.21696,28.4484417 45.19416,28.301525 C45.17256,28.1558028 45.16056,27.9933583 45.16056,27.8141917 L45.16056,25.9018861 L44.39856,25.9018861 L44.39856,25.4109694 L45.16056,25.4109694 L45.16056,24.420775 L45.74376,24.420775 L45.74376,25.4109694 L46.77576,25.4109694 L46.77576,25.9018861 Z M48.85404,29.6899472 C48.79404,29.8392528 48.73284,29.974225 48.67164,30.0948639 C48.60804,30.2166972 48.53364,30.3206139 48.44604,30.4078083 C48.35964,30.4950028 48.25404,30.5618917 48.13284,30.608475 C48.01044,30.6562528 47.86284,30.6789472 47.68764,30.6789472 C47.60364,30.6789472 47.51484,30.6741694 47.42244,30.6646139 C47.33004,30.6538639 47.24364,30.629975 47.16444,30.5905583 L47.23884,30.0841139 C47.29884,30.1091972 47.36124,30.124725 47.42724,30.1318917 C47.49084,30.1402528 47.56644,30.1438361 47.65044,30.1438361 C47.84004,30.1438361 47.97924,30.0912806 48.06924,29.9873639 C48.15924,29.8834472 48.23604,29.7436972 48.30084,29.5705028 L48.53964,28.9159472 L47.09004,25.4114472 L47.77044,25.4114472 L48.85404,28.1419472 L48.86844,28.1419472 L49.90764,25.4114472 L50.54244,25.4114472 L48.85404,29.6899472 Z M55.67088,25.9018861 L54.90888,25.9018861 L54.90888,25.4109694 L55.67088,25.4109694 L55.67088,24.6298028 C55.67088,24.4171917 55.69128,24.2224972 55.73088,24.0457194 C55.77048,23.8701361 55.83888,23.7172472 55.93608,23.5882472 C56.03328,23.4592472 56.16168,23.3589139 56.32128,23.2872472 C56.48088,23.2143861 56.67768,23.1785528 56.91168,23.1785528 C56.98608,23.1785528 57.06648,23.1857194 57.15168,23.2012472 C57.23568,23.216775 57.30528,23.238275 57.36048,23.2681361 L57.27768,23.7889139 C57.13848,23.7399417 57.00648,23.7148583 56.88168,23.7148583 C56.73168,23.7148583 56.61528,23.7399417 56.53128,23.7924972 C56.44608,23.8438583 56.38248,23.9167194 56.34048,24.0086917 C56.29848,24.1006639 56.27208,24.2105528 56.26488,24.3395528 C56.25768,24.4697472 56.25408,24.6083028 56.25408,24.7564139 L56.25408,25.4109694 L57.10608,25.4109694 L57.10608,25.9018861 L56.25408,25.9018861 L56.25408,28.892775 L55.67088,28.892775 L55.67088,25.9018861 Z M59.44608,27.2194778 C59.07168,27.2194778 58.77648,27.2720333 58.55688,27.3747556 C58.33728,27.4798667 58.22808,27.6506722 58.22808,27.8883667 C58.22808,28.10695 58.30128,28.2622278 58.44888,28.3542 C58.59528,28.4461722 58.77768,28.4915611 58.99728,28.4915611 C59.16648,28.4915611 59.31528,28.4628944 59.44248,28.4055611 C59.56968,28.3494222 59.67528,28.2741722 59.76048,28.1798111 C59.84448,28.08545 59.90928,27.9743667 59.95368,27.8477556 C59.99928,27.7211444 60.02448,27.5861722 60.02928,27.4428389 L60.02928,27.2194778 L59.44608,27.2194778 Z M57.75648,25.8578111 C57.93648,25.6750611 58.14888,25.5400889 58.39488,25.4528944 C58.64208,25.3657 58.89288,25.3215056 59.14728,25.3215056 C59.66568,25.3215056 60.03888,25.4433389 60.26808,25.6858111 C60.49728,25.9294778 60.61248,26.2985611 60.61248,26.79545 L60.61248,28.2908944 C60.61248,28.3900333 60.61728,28.4927556 60.62688,28.5990611 C60.63768,28.7065611 60.64968,28.8045056 60.66408,28.8940889 L60.10368,28.8940889 C60.08328,28.8152556 60.07248,28.7256722 60.07008,28.6301167 C60.06768,28.5333667 60.06648,28.4473667 60.06648,28.3721167 L60.05208,28.3721167 C59.93688,28.5512833 59.78328,28.6982 59.59248,28.8116722 C59.40048,28.9263389 59.17008,28.9824778 58.90128,28.9824778 C58.72128,28.9824778 58.55328,28.9609778 58.39488,28.9155889 C58.23888,28.8702 58.10208,28.8057 57.98448,28.7185056 C57.86808,28.6325056 57.77328,28.5238111 57.70368,28.3948111 C57.63408,28.2658111 57.59928,28.1177 57.59928,27.9492833 C57.59928,27.6614222 57.67488,27.4356722 57.82368,27.2720333 C57.97368,27.1072 58.15968,26.9865611 58.38048,26.9065333 C58.60248,26.8277 58.84128,26.7775333 59.09808,26.7584222 C59.35488,26.7381167 59.59008,26.7285611 59.80488,26.7285611 L60.02928,26.7285611 L60.02928,26.62345 C60.02928,26.3714222 59.95368,26.1803111 59.80128,26.0513111 C59.64888,25.9223111 59.43648,25.8578111 59.16288,25.8578111 C58.97208,25.8578111 58.78728,25.8888667 58.60488,25.9509778 C58.42248,26.0130889 58.26288,26.1086444 58.12368,26.23645 L57.75648,25.8578111 Z M61.8084,28.892775 L62.3916,28.892775 L62.3916,25.409775 L61.8084,25.409775 L61.8084,28.892775 Z M61.674,24.0493028 C61.674,23.937025 61.7148,23.8366917 61.7964,23.7530806 C61.878,23.6670806 61.98,23.6264694 62.0988,23.6264694 C62.2188,23.6264694 62.3196,23.6670806 62.4024,23.7530806 C62.4852,23.8366917 62.526,23.937025 62.526,24.0493028 C62.526,24.1747194 62.4852,24.2750528 62.406,24.3550806 C62.3268,24.4351083 62.2248,24.474525 62.0988,24.474525 C61.9752,24.474525 61.872,24.4351083 61.7928,24.3550806 C61.7136,24.2750528 61.674,24.1747194 61.674,24.0493028 Z M63.62436,26.2372861 C63.62436,26.078425 63.61956,25.9291194 63.60996,25.7905639 C63.59916,25.6520083 63.59436,25.5253972 63.59436,25.411925 L64.14756,25.411925 C64.14756,25.5050917 64.14996,25.5994528 64.15476,25.6950083 C64.16076,25.788175 64.16316,25.8861194 64.16316,25.9840639 L64.17756,25.9840639 C64.21716,25.9004528 64.27356,25.8180361 64.34556,25.7392028 C64.41756,25.6603694 64.50396,25.5887028 64.60356,25.5277861 C64.70316,25.4644806 64.81596,25.4155083 64.93956,25.3784806 C65.06436,25.3402583 65.19996,25.3223417 65.34396,25.3223417 C65.38356,25.3223417 65.42316,25.3247306 65.46396,25.3307028 C65.50356,25.3342861 65.54316,25.3438417 65.58276,25.3593694 L65.54556,25.9470361 C65.44596,25.917175 65.34036,25.9028417 65.23116,25.9028417 C64.87356,25.9028417 64.61316,26.0187028 64.44996,26.2480361 C64.28916,26.4785639 64.20756,26.7950917 64.20756,27.1976194 L64.20756,28.8937306 L63.62436,28.8937306 L63.62436,26.2372861 Z M66.33024,26.2372861 C66.33024,26.078425 66.32544,25.9291194 66.31584,25.7905639 C66.30504,25.6520083 66.30024,25.5253972 66.30024,25.411925 L66.85344,25.411925 C66.85344,25.5050917 66.85584,25.5994528 66.86064,25.6950083 C66.86664,25.788175 66.86784,25.8861194 66.86784,25.9840639 L66.88344,25.9840639 C66.92304,25.9004528 66.97944,25.8180361 67.05144,25.7392028 C67.12344,25.6603694 67.20984,25.5887028 67.30944,25.5277861 C67.40904,25.4644806 67.52184,25.4155083 67.64544,25.3784806 C67.77024,25.3402583 67.90584,25.3223417 68.04984,25.3223417 C68.27904,25.3223417 68.47704,25.3569806 68.64384,25.4262583 C68.81064,25.4955361 68.94984,25.5922861 69.05904,25.7165083 C69.16824,25.8407306 69.24864,25.9912306 69.30144,26.1668139 C69.35424,26.3423972 69.38064,26.5347028 69.38064,26.7437306 L69.38064,28.8937306 L68.79744,28.8937306 L68.79744,26.8022583 C68.79744,26.5108139 68.73144,26.2790917 68.60304,26.1118694 C68.47344,25.9434528 68.27064,25.8586472 67.99704,25.8586472 C67.80744,25.8586472 67.64424,25.8897028 67.50744,25.9542028 C67.37064,26.0187028 67.25784,26.1118694 67.17144,26.2301194 C67.08384,26.3495639 67.01904,26.4905083 66.97704,26.6541472 C66.93504,26.8177861 66.91344,26.9993417 66.91344,27.1976194 L66.91344,28.8937306 L66.33024,28.8937306 L66.33024,26.2372861 Z M73.18452,26.8391667 C73.17492,26.54175 73.07772,26.3040556 72.89292,26.1260833 C72.70932,25.9469167 72.45492,25.8573333 72.13092,25.8573333 C71.80692,25.8573333 71.54532,25.9469167 71.34612,26.1260833 C71.14692,26.3040556 71.02692,26.54175 70.98732,26.8391667 L73.18452,26.8391667 Z M73.68612,28.2605556 C73.47612,28.5281111 73.24692,28.7156389 72.99732,28.8231389 C72.74892,28.9294444 72.45972,28.982 72.13092,28.982 C71.85732,28.982 71.61012,28.9342222 71.39052,28.8374722 C71.17092,28.7407222 70.98612,28.6105278 70.83372,28.4468889 C70.68132,28.28325 70.56492,28.08975 70.48212,27.8663889 C70.40052,27.6430278 70.35972,27.4053333 70.35972,27.1521111 C70.35972,26.8833611 70.40412,26.6373056 70.49412,26.4115556 C70.58292,26.187 70.70772,25.9923056 70.86732,25.8310556 C71.02692,25.6698056 71.21652,25.5455833 71.43492,25.456 C71.65452,25.3664167 71.89332,25.3222222 72.15252,25.3222222 C72.39732,25.3222222 72.62172,25.3628333 72.82572,25.4440556 C73.03092,25.5264722 73.20612,25.6459167 73.35252,25.8011944 C73.50012,25.9576667 73.61292,26.1487778 73.69332,26.3745278 C73.77252,26.6002778 73.81332,26.8570833 73.81332,27.1449444 L73.81332,27.3312778 L70.98732,27.3312778 C70.99692,27.4793889 71.03292,27.6227222 71.09532,27.7588889 C71.15772,27.8950556 71.23812,28.0145 71.33772,28.1148333 C71.43852,28.2175556 71.55492,28.2975833 71.68932,28.3573056 C71.82372,28.4170278 71.97132,28.4468889 72.13092,28.4468889 C72.38532,28.4468889 72.59892,28.4026944 72.77412,28.3131111 C72.94812,28.2235278 73.10532,28.0921389 73.24452,27.91775 L73.68612,28.2605556 Z M74.8668,27.9781889 C74.9808,28.1215222 75.1068,28.2361889 75.2436,28.3209944 C75.3816,28.4046056 75.5544,28.4476056 75.7644,28.4476056 C75.8544,28.4476056 75.9444,28.4368556 76.0368,28.41655 C76.1292,28.3974389 76.212,28.3651889 76.2876,28.3209944 C76.362,28.2756056 76.422,28.2194667 76.4664,28.1537722 C76.512,28.0856889 76.5348,28.0056611 76.5348,27.9113 C76.5348,27.8169389 76.512,27.7404944 76.47,27.6807722 C76.428,27.62105 76.3716,27.5708833 76.302,27.5278833 C76.2324,27.4860778 76.152,27.4526333 76.0632,27.42755 C75.9732,27.4024667 75.8808,27.3809667 75.786,27.3606611 C75.6216,27.3260222 75.4656,27.2866056 75.3156,27.2412167 C75.1656,27.1970222 75.0348,27.1384944 74.9232,27.0668278 C74.8116,26.9939667 74.7216,26.9019944 74.6544,26.7873278 C74.5872,26.6738556 74.5524,26.5269389 74.5524,26.3489667 C74.5524,26.18055 74.5908,26.0312444 74.6652,25.9022444 C74.7396,25.7732444 74.8392,25.6657444 74.964,25.5821333 C75.0888,25.4973278 75.228,25.4340222 75.3828,25.3886333 C75.5376,25.3444389 75.696,25.3217444 75.8616,25.3217444 C76.11,25.3217444 76.3404,25.3719111 76.5528,25.4698556 C76.764,25.5701889 76.9296,25.7302444 77.0496,25.9536056 L76.5636,26.2737167 C76.4892,26.1506889 76.3908,26.0491611 76.2684,25.9727167 C76.1472,25.8962722 75.9984,25.8568556 75.8232,25.8568556 C75.744,25.8568556 75.6636,25.8676056 75.5808,25.8867167 C75.498,25.9070222 75.4248,25.9368833 75.3612,25.9763 C75.2952,26.0169111 75.2424,26.0670778 75.1992,26.1291889 C75.1572,26.1913 75.1356,26.2617722 75.1356,26.3406056 C75.1356,26.4158556 75.1596,26.4791611 75.2064,26.5305222 C75.2544,26.5830778 75.3192,26.6296611 75.402,26.6678833 C75.4836,26.7084944 75.5784,26.7431333 75.6864,26.7729944 C75.792,26.8016611 75.9036,26.8267444 76.0176,26.84705 C76.1724,26.8769111 76.32,26.9151333 76.4592,26.9629111 C76.5984,27.0094944 76.7208,27.0728 76.8252,27.1528278 C76.9296,27.2316611 77.0124,27.3308 77.0712,27.4502444 C77.1324,27.5696889 77.1624,27.7154111 77.1624,27.8886056 C77.1624,28.0868833 77.1216,28.2564944 77.0424,28.39505 C76.9632,28.5336056 76.8564,28.6458833 76.7244,28.7330778 C76.5924,28.8202722 76.4424,28.8835778 76.2756,28.9229944 C76.1088,28.9624111 75.9384,28.9827167 75.7644,28.9827167 C75.4656,28.9827167 75.2064,28.9361333 74.9904,28.8441611 C74.7732,28.7533833 74.5776,28.5825778 74.4036,28.3353278 L74.8668,27.9781889 Z M78.12576,27.9781889 C78.23976,28.1215222 78.36576,28.2361889 78.50256,28.3209944 C78.64056,28.4046056 78.81336,28.4476056 79.02336,28.4476056 C79.11336,28.4476056 79.20336,28.4368556 79.29576,28.41655 C79.38816,28.3974389 79.47096,28.3651889 79.54656,28.3209944 C79.62096,28.2756056 79.68096,28.2194667 79.72536,28.1537722 C79.77096,28.0856889 79.79376,28.0056611 79.79376,27.9113 C79.79376,27.8169389 79.77096,27.7404944 79.72896,27.6807722 C79.68696,27.62105 79.63056,27.5708833 79.56096,27.5278833 C79.49136,27.4860778 79.41096,27.4526333 79.32216,27.42755 C79.23216,27.4024667 79.13976,27.3809667 79.04496,27.3606611 C78.88056,27.3260222 78.72456,27.2866056 78.57456,27.2412167 C78.42456,27.1970222 78.29376,27.1384944 78.18216,27.0668278 C78.07056,26.9939667 77.98056,26.9019944 77.91336,26.7873278 C77.84616,26.6738556 77.81136,26.5269389 77.81136,26.3489667 C77.81136,26.18055 77.84976,26.0312444 77.92416,25.9022444 C77.99856,25.7732444 78.09816,25.6657444 78.22296,25.5821333 C78.34776,25.4973278 78.48696,25.4340222 78.64176,25.3886333 C78.79656,25.3444389 78.95496,25.3217444 79.12056,25.3217444 C79.36896,25.3217444 79.59936,25.3719111 79.81176,25.4698556 C80.02296,25.5701889 80.18856,25.7302444 80.30856,25.9536056 L79.82256,26.2737167 C79.74816,26.1506889 79.64976,26.0491611 79.52736,25.9727167 C79.40616,25.8962722 79.25736,25.8568556 79.08216,25.8568556 C79.00296,25.8568556 78.92256,25.8676056 78.83976,25.8867167 C78.75696,25.9070222 78.68376,25.9368833 78.62016,25.9763 C78.55416,26.0169111 78.50136,26.0670778 78.45816,26.1291889 C78.41616,26.1913 78.39456,26.2617722 78.39456,26.3406056 C78.39456,26.4158556 78.41856,26.4791611 78.46536,26.5305222 C78.51336,26.5830778 78.57816,26.6296611 78.66096,26.6678833 C78.74256,26.7084944 78.83736,26.7431333 78.94536,26.7729944 C79.05096,26.8016611 79.16256,26.8267444 79.27656,26.84705 C79.43136,26.8769111 79.57896,26.9151333 79.71816,26.9629111 C79.85736,27.0094944 79.97976,27.0728 80.08416,27.1528278 C80.18856,27.2316611 80.27136,27.3308 80.33016,27.4502444 C80.39136,27.5696889 80.42136,27.7154111 80.42136,27.8886056 C80.42136,28.0868833 80.38056,28.2564944 80.30136,28.39505 C80.22216,28.5336056 80.11536,28.6458833 79.98336,28.7330778 C79.85136,28.8202722 79.70136,28.8835778 79.53456,28.9229944 C79.36776,28.9624111 79.19736,28.9827167 79.02336,28.9827167 C78.72456,28.9827167 78.46536,28.9361333 78.24936,28.8441611 C78.03216,28.7533833 77.83656,28.5825778 77.66256,28.3353278 L78.12576,27.9781889 Z M85.9902,26.2372861 C85.9902,26.078425 85.9854,25.9291194 85.9758,25.7905639 C85.965,25.6520083 85.9602,25.5253972 85.9602,25.411925 L86.5134,25.411925 C86.5134,25.5050917 86.5158,25.5994528 86.5206,25.6950083 C86.5266,25.788175 86.5278,25.8861194 86.5278,25.9840639 L86.5434,25.9840639 C86.583,25.9004528 86.6394,25.8180361 86.7114,25.7392028 C86.7834,25.6603694 86.8698,25.5887028 86.9694,25.5277861 C87.069,25.4644806 87.1818,25.4155083 87.3054,25.3784806 C87.4302,25.3402583 87.5658,25.3223417 87.7098,25.3223417 C87.7494,25.3223417 87.789,25.3247306 87.8286,25.3307028 C87.8694,25.3342861 87.909,25.3438417 87.9486,25.3593694 L87.9114,25.9470361 C87.8118,25.917175 87.7062,25.9028417 87.597,25.9028417 C87.2394,25.9028417 86.979,26.0187028 86.8158,26.2480361 C86.6538,26.4785639 86.5734,26.7950917 86.5734,27.1976194 L86.5734,28.8937306 L85.9902,28.8937306 L85.9902,26.2372861 Z M91.18452,26.8391667 C91.17492,26.54175 91.07772,26.3040556 90.89292,26.1260833 C90.70932,25.9469167 90.45492,25.8573333 90.13092,25.8573333 C89.80692,25.8573333 89.54532,25.9469167 89.34612,26.1260833 C89.14692,26.3040556 89.02692,26.54175 88.98732,26.8391667 L91.18452,26.8391667 Z M91.68612,28.2605556 C91.47612,28.5281111 91.24692,28.7156389 90.99732,28.8231389 C90.74892,28.9294444 90.45972,28.982 90.13092,28.982 C89.85732,28.982 89.61012,28.9342222 89.39052,28.8374722 C89.17092,28.7407222 88.98612,28.6105278 88.83372,28.4468889 C88.68132,28.28325 88.56492,28.08975 88.48212,27.8663889 C88.40052,27.6430278 88.35972,27.4053333 88.35972,27.1521111 C88.35972,26.8833611 88.40412,26.6373056 88.49412,26.4115556 C88.58292,26.187 88.70772,25.9923056 88.86732,25.8310556 C89.02692,25.6698056 89.21652,25.5455833 89.43492,25.456 C89.65452,25.3664167 89.89332,25.3222222 90.15252,25.3222222 C90.39732,25.3222222 90.62172,25.3628333 90.82572,25.4440556 C91.03092,25.5264722 91.20612,25.6459167 91.35252,25.8011944 C91.50012,25.9576667 91.61292,26.1487778 91.69332,26.3745278 C91.77252,26.6002778 91.81332,26.8570833 91.81332,27.1449444 L91.81332,27.3312778 L88.98732,27.3312778 C88.99692,27.4793889 89.03292,27.6227222 89.09532,27.7588889 C89.15772,27.8950556 89.23812,28.0145 89.33772,28.1148333 C89.43852,28.2175556 89.55492,28.2975833 89.68932,28.3573056 C89.82372,28.4170278 89.97132,28.4468889 90.13092,28.4468889 C90.38532,28.4468889 90.59892,28.4026944 90.77412,28.3131111 C90.94812,28.2235278 91.10532,28.0921389 91.24452,27.91775 L91.68612,28.2605556 Z M92.8668,27.9781889 C92.9808,28.1215222 93.1068,28.2361889 93.2448,28.3209944 C93.3816,28.4046056 93.5544,28.4476056 93.7644,28.4476056 C93.8544,28.4476056 93.9444,28.4368556 94.0368,28.41655 C94.1292,28.3974389 94.212,28.3651889 94.2876,28.3209944 C94.362,28.2756056 94.422,28.2194667 94.4664,28.1537722 C94.512,28.0856889 94.5348,28.0056611 94.5348,27.9113 C94.5348,27.8169389 94.512,27.7404944 94.47,27.6807722 C94.428,27.62105 94.3716,27.5708833 94.302,27.5278833 C94.2324,27.4860778 94.152,27.4526333 94.0632,27.42755 C93.9732,27.4024667 93.8808,27.3809667 93.786,27.3606611 C93.6216,27.3260222 93.4656,27.2866056 93.3156,27.2412167 C93.1656,27.1970222 93.0348,27.1384944 92.9232,27.0668278 C92.8116,26.9939667 92.7216,26.9019944 92.6544,26.7873278 C92.5872,26.6738556 92.5524,26.5269389 92.5524,26.3489667 C92.5524,26.18055 92.5908,26.0312444 92.6652,25.9022444 C92.7396,25.7732444 92.8392,25.6657444 92.964,25.5821333 C93.0888,25.4973278 93.228,25.4340222 93.3828,25.3886333 C93.5376,25.3444389 93.696,25.3217444 93.8616,25.3217444 C94.11,25.3217444 94.3404,25.3719111 94.5528,25.4698556 C94.764,25.5701889 94.9296,25.7302444 95.0496,25.9536056 L94.5636,26.2737167 C94.4892,26.1506889 94.3908,26.0491611 94.2684,25.9727167 C94.1472,25.8962722 93.9984,25.8568556 93.8232,25.8568556 C93.744,25.8568556 93.6636,25.8676056 93.5808,25.8867167 C93.498,25.9070222 93.4248,25.9368833 93.3612,25.9763 C93.2952,26.0169111 93.2424,26.0670778 93.1992,26.1291889 C93.1572,26.1913 93.1356,26.2617722 93.1356,26.3406056 C93.1356,26.4158556 93.1596,26.4791611 93.2064,26.5305222 C93.2544,26.5830778 93.3192,26.6296611 93.402,26.6678833 C93.4836,26.7084944 93.5784,26.7431333 93.6864,26.7729944 C93.792,26.8016611 93.9036,26.8267444 94.0176,26.84705 C94.1724,26.8769111 94.32,26.9151333 94.4592,26.9629111 C94.5984,27.0094944 94.7208,27.0728 94.8252,27.1528278 C94.9296,27.2316611 95.0124,27.3308 95.0712,27.4502444 C95.1324,27.5696889 95.1624,27.7154111 95.1624,27.8886056 C95.1624,28.0868833 95.1216,28.2564944 95.0424,28.39505 C94.9632,28.5336056 94.8564,28.6458833 94.7244,28.7330778 C94.5924,28.8202722 94.4424,28.8835778 94.2756,28.9229944 C94.1088,28.9624111 93.9384,28.9827167 93.7644,28.9827167 C93.4656,28.9827167 93.2064,28.9361333 92.9904,28.8441611 C92.7732,28.7533833 92.5776,28.5825778 92.4036,28.3353278 L92.8668,27.9781889 Z M96.60444,27.15235 C96.60444,27.3351 96.63324,27.5059056 96.69084,27.6623778 C96.74724,27.81885 96.83124,27.9550167 96.94044,28.0720722 C97.05084,28.1879333 97.18164,28.2799056 97.33284,28.3467944 C97.48524,28.4136833 97.65564,28.4471278 97.84524,28.4471278 C98.03484,28.4471278 98.20524,28.4136833 98.35764,28.3467944 C98.51004,28.2799056 98.63964,28.1879333 98.75004,28.0720722 C98.85924,27.9550167 98.94324,27.81885 99.00084,27.6623778 C99.05724,27.5059056 99.08604,27.3351 99.08604,27.15235 C99.08604,26.9696 99.05724,26.7987944 99.00084,26.6423222 C98.94324,26.48585 98.85924,26.3508778 98.75004,26.2326278 C98.63964,26.1167667 98.51004,26.0247944 98.35764,25.9579056 C98.20524,25.8910167 98.03484,25.8587667 97.84524,25.8587667 C97.65564,25.8587667 97.48524,25.8910167 97.33284,25.9579056 C97.18164,26.0247944 97.05084,26.1167667 96.94044,26.2326278 C96.83124,26.3508778 96.74724,26.48585 96.69084,26.6423222 C96.63324,26.7987944 96.60444,26.9696 96.60444,27.15235 Z M96.02124,25.41085 L96.60444,25.41085 L96.60444,25.9172944 L96.61884,25.9172944 C96.77964,25.7285722 96.96444,25.58285 97.17564,25.4777389 C97.38804,25.3738222 97.62204,25.3224611 97.87524,25.3224611 C98.15004,25.3224611 98.39964,25.36785 98.62644,25.4598222 C98.85324,25.5517944 99.04644,25.6796 99.20604,25.8432389 C99.36564,26.0068778 99.49044,26.2003778 99.57924,26.4225444 C99.66924,26.6459056 99.71364,26.8895722 99.71364,27.15235 C99.71364,27.4151278 99.66924,27.6587944 99.57924,27.8821556 C99.49044,28.1043222 99.36564,28.2990167 99.20964,28.4614611 C99.05244,28.6262944 98.86644,28.7529056 98.65284,28.8448778 C98.43924,28.93685 98.20884,28.9822389 97.96524,28.9822389 C97.65084,28.9822389 97.37484,28.91535 97.13964,28.7779889 C96.90204,28.6418222 96.72924,28.4734056 96.61884,28.2763222 L96.60444,28.2763222 L96.60444,30.5899611 L96.02124,30.5899611 L96.02124,25.41085 Z M103.317,26.8391667 C103.3074,26.54175 103.2102,26.3040556 103.0254,26.1260833 C102.8418,25.9469167 102.5874,25.8573333 102.2634,25.8573333 C101.9394,25.8573333 101.6778,25.9469167 101.4786,26.1260833 C101.2794,26.3040556 101.1594,26.54175 101.1198,26.8391667 L103.317,26.8391667 Z M103.8186,28.2605556 C103.6086,28.5281111 103.3794,28.7156389 103.1298,28.8231389 C102.8814,28.9294444 102.5922,28.982 102.2634,28.982 C101.9898,28.982 101.7426,28.9342222 101.523,28.8374722 C101.3046,28.7407222 101.1186,28.6105278 100.9662,28.4468889 C100.8138,28.28325 100.6974,28.08975 100.6146,27.8663889 C100.533,27.6430278 100.4922,27.4053333 100.4922,27.1521111 C100.4922,26.8833611 100.5366,26.6373056 100.6266,26.4115556 C100.7154,26.187 100.8402,25.9923056 100.9998,25.8310556 C101.1594,25.6698056 101.349,25.5455833 101.5674,25.456 C101.787,25.3664167 102.027,25.3222222 102.2862,25.3222222 C102.5298,25.3222222 102.7542,25.3628333 102.9582,25.4440556 C103.1634,25.5264722 103.3386,25.6459167 103.485,25.8011944 C103.6326,25.9576667 103.7454,26.1487778 103.8258,26.3745278 C103.905,26.6002778 103.9458,26.8570833 103.9458,27.1449444 L103.9458,27.3312778 L101.1198,27.3312778 C101.1294,27.4793889 101.1654,27.6227222 101.2278,27.7588889 C101.2902,27.8950556 101.3706,28.0145 101.4702,28.1148333 C101.571,28.2175556 101.6874,28.2975833 101.8218,28.3573056 C101.9562,28.4170278 102.1038,28.4468889 102.2634,28.4468889 C102.5178,28.4468889 102.7314,28.4026944 102.9066,28.3131111 C103.0806,28.2235278 103.2378,28.0921389 103.377,27.91775 L103.8186,28.2605556 Z M107.41332,26.2821972 C107.28852,26.1328917 107.15412,26.0253917 107.01012,25.9585028 C106.86492,25.8916139 106.70532,25.8581694 106.53132,25.8581694 C106.33692,25.8581694 106.16412,25.8916139 106.01532,25.9585028 C105.86532,26.0253917 105.74292,26.1185583 105.64572,26.2380028 C105.54852,26.3562528 105.47412,26.4936139 105.42492,26.6500861 C105.37452,26.8065583 105.35052,26.9737806 105.35052,27.1529472 C105.35052,27.3309194 105.37932,27.4981417 105.43572,27.6546139 C105.49332,27.8110861 105.57252,27.9484472 105.67572,28.0678917 C105.77772,28.1861417 105.90132,28.2793083 106.04532,28.3473917 C106.19052,28.4130861 106.35252,28.447725 106.53132,28.447725 C106.91532,28.447725 107.21172,28.3031972 107.42052,28.0165306 L107.85372,28.4250306 C107.68452,28.6185306 107.48532,28.759475 107.25612,28.8490583 C107.02692,28.9374472 106.78572,28.9828361 106.53132,28.9828361 C106.26252,28.9828361 106.01532,28.9374472 105.79092,28.8490583 C105.56652,28.759475 105.37692,28.6328639 105.21852,28.469225 C105.06252,28.3055861 104.94012,28.1120861 104.85252,27.888725 C104.76492,27.6653639 104.72292,27.4205028 104.72292,27.1529472 C104.72292,26.8901694 104.76492,26.6465028 104.85252,26.4231417 C104.94012,26.1997806 105.06372,26.007475 105.22332,25.8438361 C105.38292,25.6790028 105.57252,25.5511972 105.79572,25.4604194 C106.01652,25.3684472 106.26252,25.3218639 106.53132,25.3218639 C106.79052,25.3218639 107.03532,25.3672528 107.26692,25.4568361 C107.49852,25.545225 107.70252,25.684975 107.87652,25.8736972 L107.41332,26.2821972 Z M110.5158,25.9018861 L109.4838,25.9018861 L109.4838,27.6433861 C109.4838,27.7568583 109.4862,27.8631639 109.491,27.9599139 C109.497,28.0554694 109.5162,28.140275 109.551,28.2119417 C109.5858,28.2848028 109.6386,28.3409417 109.7082,28.3839417 C109.7778,28.4257472 109.8774,28.4472472 110.007,28.4472472 C110.0922,28.4472472 110.1798,28.4364972 110.2686,28.4173861 C110.3586,28.3970806 110.4438,28.3672194 110.523,28.3278028 L110.5458,28.8569417 C110.4462,28.9011361 110.3346,28.9333861 110.2122,28.9524972 C110.091,28.9728028 109.9746,28.9823583 109.8654,28.9823583 C109.6554,28.9823583 109.4898,28.9548861 109.3638,28.9011361 C109.2402,28.8461917 109.143,28.7697472 109.0734,28.6706083 C109.0038,28.570275 108.957,28.4484417 108.9342,28.301525 C108.9126,28.1558028 108.9006,27.9933583 108.9006,27.8141917 L108.9006,25.9018861 L108.1386,25.9018861 L108.1386,25.4109694 L108.9006,25.4109694 L108.9006,24.420775 L109.4838,24.420775 L109.4838,25.4109694 L110.5158,25.4109694 L110.5158,25.9018861 Z M50.72496,28.5660944 C50.72496,28.5075667 50.73576,28.4526222 50.75736,28.4000667 C50.77896,28.3475111 50.81016,28.3021222 50.84976,28.2627056 C50.88936,28.2220944 50.93736,28.1922333 50.99376,28.1683444 C51.05016,28.14565 51.11136,28.1349 51.17856,28.1349 C51.25536,28.1349 51.32376,28.1480389 51.38376,28.1755111 C51.44376,28.2041778 51.49416,28.2435944 51.53376,28.2925667 C51.57336,28.3427333 51.60336,28.4000667 51.62376,28.4657611 C51.64416,28.5290667 51.65496,28.6007333 51.65496,28.6771778 C51.65496,28.7918444 51.63816,28.9112889 51.60456,29.0343167 C51.57096,29.1585389 51.52416,29.2803722 51.46296,29.4022056 C51.40056,29.5228444 51.32496,29.6399 51.23376,29.7557611 C51.14376,29.8704278 51.04056,29.9755389 50.92416,30.0734833 L50.80896,29.9624 C50.77536,29.9313444 50.75976,29.8955111 50.75976,29.8549 C50.75976,29.8214556 50.77776,29.7880111 50.81376,29.7521778 C50.83896,29.7235111 50.87136,29.6864833 50.91096,29.6387056 C50.95056,29.5921222 50.99136,29.5371778 51.03216,29.4762611 C51.07296,29.41415 51.11136,29.3472611 51.14616,29.2732056 C51.17976,29.19915 51.20496,29.1215111 51.22056,29.0367056 L51.17016,29.0367056 C51.10416,29.0367056 51.04416,29.0247611 50.99016,29.0020667 C50.93616,28.9793722 50.88936,28.9459278 50.84976,28.9041222 C50.81016,28.8623167 50.77896,28.81215 50.75736,28.7548167 C50.73576,28.6974833 50.72496,28.6353722 50.72496,28.5660944 Z M81.3426,28.5660944 C81.3426,28.5075667 81.3534,28.4526222 81.375,28.4000667 C81.3978,28.3475111 81.4278,28.3021222 81.4674,28.2627056 C81.507,28.2220944 81.555,28.1922333 81.6114,28.1683444 C81.6678,28.14565 81.729,28.1349 81.7962,28.1349 C81.873,28.1349 81.9414,28.1480389 82.0014,28.1755111 C82.0614,28.2041778 82.1118,28.2435944 82.1514,28.2925667 C82.191,28.3427333 82.221,28.4000667 82.2414,28.4657611 C82.263,28.5290667 82.2726,28.6007333 82.2726,28.6771778 C82.2726,28.7918444 82.2558,28.9112889 82.2222,29.0343167 C82.1886,29.1585389 82.1418,29.2803722 82.0806,29.4022056 C82.0194,29.5228444 81.9426,29.6399 81.8514,29.7557611 C81.7614,29.8704278 81.6582,29.9755389 81.543,30.0734833 L81.4266,29.9624 C81.3942,29.9313444 81.3774,29.8955111 81.3774,29.8549 C81.3774,29.8214556 81.3954,29.7880111 81.4314,29.7521778 C81.4566,29.7235111 81.489,29.6864833 81.5298,29.6387056 C81.567,29.5921222 81.609,29.5371778 81.6498,29.4762611 C81.6918,29.41415 81.729,29.3472611 81.7638,29.2732056 C81.7986,29.19915 81.8226,29.1215111 81.8382,29.0367056 L81.789,29.0367056 C81.7218,29.0367056 81.6618,29.0247611 81.6078,29.0020667 C81.5538,28.9793722 81.507,28.9459278 81.4674,28.9041222 C81.4278,28.8623167 81.3978,28.81215 81.375,28.7548167 C81.3534,28.6974833 81.3426,28.6353722 81.3426,28.5660944 Z" id="Shape" fill="#E5007D"></path>
            </g>
            <path d="M27,33 L131,33" id="Shape"></path>
        </g>
    </g>
</svg>